<?xml version="1.0" encoding="iso-8859-1"?>
<!-- Generator: Adobe Illustrator 19.0.0, SVG Export Plug-In . SVG Version: 6.00 Build 0)  -->
<svg version="1.1" id="Capa_1" xmlns="http://www.w3.org/2000/svg" xmlns:xlink="http://www.w3.org/1999/xlink" x="0px" y="0px"
	 viewBox="0 0 512 512" style="enable-background:new 0 0 512 512;" xml:space="preserve" fill="#fc383a" width="50" height="50">
<g>
	<g>
		<g>
			<path d="M405.333,0H106.667C83.135,0,64,19.135,64,42.667v426.667C64,492.865,83.135,512,106.667,512h298.667
				C428.865,512,448,492.865,448,469.333V42.667C448,19.135,428.865,0,405.333,0z M426.667,469.333
				c0,11.76-9.573,21.333-21.333,21.333H106.667c-11.76,0-21.333-9.573-21.333-21.333V42.667c0-11.76,9.573-21.333,21.333-21.333
				h298.667c11.76,0,21.333,9.573,21.333,21.333V469.333z"/>
			<path d="M234.667,170.667c0.086,0,0.165-0.026,0.251-0.026C244.663,183.53,259.967,192,277.333,192
				c29.406,0,53.333-23.927,53.333-53.333s-23.927-53.333-53.333-53.333c-0.086,0-0.165,0.026-0.251,0.026
				C267.337,72.47,252.033,64,234.667,64c-29.406,0-53.333,23.927-53.333,53.333S205.26,170.667,234.667,170.667z M288,117.333
				c0-3.077-0.406-6.049-0.909-8.984c12.855,4.155,22.242,16.096,22.242,30.318c0,17.646-14.354,32-32,32
				c-6.932,0-13.31-2.27-18.555-6.03C276.038,155.796,288,138.02,288,117.333z M265.432,109.016
				c0.724,2.669,1.234,5.423,1.234,8.318c0,13.434-8.342,24.914-20.099,29.651c-0.724-2.669-1.234-5.423-1.234-8.318
				C245.333,125.233,253.676,113.753,265.432,109.016z M234.667,85.333c6.932,0,13.31,2.27,18.555,6.03
				C235.962,100.204,224,117.98,224,138.667c0,3.077,0.406,6.049,0.909,8.984c-12.855-4.155-22.242-16.096-22.242-30.318
				C202.667,99.688,217.021,85.333,234.667,85.333z"/>
			<path d="M373.333,234.667H138.667c-5.896,0-10.667,4.771-10.667,10.667c0,5.896,4.771,10.667,10.667,10.667h234.667
				c5.896,0,10.667-4.771,10.667-10.667C384,239.438,379.229,234.667,373.333,234.667z"/>
			<path d="M373.333,320H138.667c-5.896,0-10.667,4.771-10.667,10.667c0,5.896,4.771,10.667,10.667,10.667h234.667
				c5.896,0,10.667-4.771,10.667-10.667C384,324.771,379.229,320,373.333,320z"/>
			<path d="M224,405.333h-85.333c-5.896,0-10.667,4.771-10.667,10.667c0,5.896,4.771,10.667,10.667,10.667H224
				c5.896,0,10.667-4.771,10.667-10.667C234.667,410.104,229.896,405.333,224,405.333z"/>
			<path d="M373.333,405.333H288c-5.896,0-10.667,4.771-10.667,10.667c0,5.896,4.771,10.667,10.667,10.667h85.333
				c5.896,0,10.667-4.771,10.667-10.667C384,410.104,379.229,405.333,373.333,405.333z"/>
		</g>
	</g>
</g>
<g>
</g>
<g>
</g>
<g>
</g>
<g>
</g>
<g>
</g>
<g>
</g>
<g>
</g>
<g>
</g>
<g>
</g>
<g>
</g>
<g>
</g>
<g>
</g>
<g>
</g>
<g>
</g>
<g>
</g>
</svg>
